<svg width="200" height="50" viewBox="0 0 200 50" fill="none" xmlns="http://www.w3.org/2000/svg">
<path fill-rule="evenodd" clip-rule="evenodd" d="M63.7435 17.6304H56.5845V33.5524H51.9092V13.2881H68.4188V33.5524H63.7435V17.6304Z" fill="white"/>
<path fill-rule="evenodd" clip-rule="evenodd" d="M77.5202 29.8466C79.0104 29.8466 80.1501 28.8046 80.1501 27.0386C80.1501 25.3596 78.981 24.2305 77.5202 24.2305C76.1177 24.2305 74.8903 25.2726 74.8903 27.0386C74.8903 28.6884 76.0299 29.8466 77.5202 29.8466ZM77.5204 20.1777C82.0207 20.1777 84.8256 23.1306 84.8256 27.0386C84.8256 30.9465 82.0207 33.8994 77.5204 33.8994C73.0202 33.8994 70.2152 30.9465 70.2152 27.0386C70.2152 23.1306 73.0202 20.1777 77.5204 20.1777Z" fill="white"/>
<path fill-rule="evenodd" clip-rule="evenodd" d="M86.3889 20.5254H90.7719V26.5472L94.337 20.5254H99.8308L95.5645 26.7207L100.473 33.5528H94.8043L90.7719 27.4732V33.5528H86.3889V20.5254Z" fill="white"/>
<path fill-rule="evenodd" clip-rule="evenodd" d="M104.345 25.5913H109.079C109.079 24.694 108.348 23.7967 106.946 23.7967C105.485 23.7967 104.754 24.4336 104.345 25.5913ZM112.205 32.4235C110.832 33.4364 108.962 33.8999 107.092 33.8999C102.767 33.8999 99.9619 31.1496 99.9619 27.0391C99.9619 23.2467 102.767 20.1777 107.092 20.1777C110.482 20.1777 113.462 22.6098 113.462 26.3157C113.462 27.3286 113.374 27.9072 113.199 28.4869H104.491C104.9 29.731 106.127 30.2815 107.559 30.2815C109.079 30.2815 110.306 29.7894 111.007 29.355L112.205 32.4235Z" fill="white"/>
<path fill-rule="evenodd" clip-rule="evenodd" d="M119.521 25.3887V29.3545C120.164 29.731 120.631 29.8472 121.567 29.8472C123.466 29.8472 124.372 28.5155 124.372 26.923C124.372 25.4179 123.466 24.2305 121.8 24.2305C120.953 24.2305 120.252 24.5779 119.521 25.3887ZM115.138 20.5251H119.521V21.5099C120.252 20.7855 121.567 20.1777 123.173 20.1777C126.71 20.1777 129.047 22.9863 129.047 26.836C129.047 30.8023 126.242 33.8999 121.975 33.8999C121.07 33.8999 120.135 33.7546 119.521 33.4942V39.3421H115.138V20.5251Z" fill="white"/>
<path fill-rule="evenodd" clip-rule="evenodd" d="M135.753 29.4996H139.085V24.5781H137.127L137.068 25.0994C136.805 27.2706 136.279 28.6887 135.753 29.4996ZM129.47 29.4996H131.165C132.159 28.1966 132.714 25.6202 132.86 23.3335L133.036 20.5254H143.467V29.4996H145.659V36.4474H141.568V33.5523H133.561V36.4474H129.47V29.4996Z" fill="white"/>
<path fill-rule="evenodd" clip-rule="evenodd" d="M153.607 29.8466C155.097 29.8466 156.237 28.8046 156.237 27.0386C156.237 25.3596 155.068 24.2305 153.607 24.2305C152.204 24.2305 150.977 25.2726 150.977 27.0386C150.977 28.6884 152.117 29.8466 153.607 29.8466ZM153.607 20.1777C158.107 20.1777 160.912 23.1306 160.912 27.0386C160.912 30.9465 158.107 33.8994 153.607 33.8994C149.107 33.8994 146.302 30.9465 146.302 27.0386C146.302 23.1306 149.107 20.1777 153.607 20.1777Z" fill="white"/>
<path fill-rule="evenodd" clip-rule="evenodd" d="M162.344 20.5254H166.288L170.233 24.9547L173.886 20.5254H177.714V33.5528H173.33V27.1545L170.145 30.7734H170.058L166.727 27.1545V33.5528H162.344V20.5254Z" fill="white"/>
<path fill-rule="evenodd" clip-rule="evenodd" d="M10.3988 10C10.1784 10 10 10.1794 10 10.4V29.4792C10 35.2566 14.7139 39.9841 20.4752 39.9841C25.7525 39.9841 30.148 36.017 30.8499 30.91C35.9421 30.2062 39.8973 25.7974 39.8973 20.5054C39.8973 14.7275 35.1839 10 29.4226 10H10.3988ZM15.7801 29.4792V15.9969C15.7801 15.8864 15.8693 15.7969 15.9796 15.7969H29.4225C31.8407 15.7969 34.1175 17.6956 34.1175 20.5054C34.1175 22.8931 32.339 25.1671 29.4333 25.1671L25.5422 25.1897C25.3238 25.1907 25.1469 25.3681 25.1454 25.5871L25.1234 29.4895C25.1234 32.4041 22.8559 34.1872 20.4751 34.1872C17.6739 34.1872 15.7801 31.9044 15.7801 29.4792ZM33.0215 36.544C33.0215 38.4524 34.564 40 36.4676 40C38.3705 40 39.9136 38.4524 39.9136 36.544C39.9136 34.635 38.3705 33.0879 36.4676 33.0879C34.564 33.0879 33.0215 34.635 33.0215 36.544Z" fill="url(#paint0_linear_25847_366943)"/>
<defs>
<linearGradient id="paint0_linear_25847_366943" x1="24.9569" y1="-5" x2="-5.04303" y2="24.9136" gradientUnits="userSpaceOnUse">
<stop stop-color="#2EFF71"/>
<stop offset="1" stop-color="#009148"/>
</linearGradient>
</defs>
</svg>
